<?xml version="1.0" encoding="UTF-8" standalone="no"?>
<!-- Created with Inkscape (http://www.inkscape.org/) -->

<svg
   xmlns:dc="http://purl.org/dc/elements/1.1/"
   xmlns:cc="http://creativecommons.org/ns#"
   xmlns:rdf="http://www.w3.org/1999/02/22-rdf-syntax-ns#"
   xmlns:svg="http://www.w3.org/2000/svg"
   xmlns="http://www.w3.org/2000/svg"
   xmlns:sodipodi="http://sodipodi.sourceforge.net/DTD/sodipodi-0.dtd"
   xmlns:inkscape="http://www.inkscape.org/namespaces/inkscape"
   version="1.1"
   id="svg80"
   width="1452.2847"
   height="1670.224"
   viewBox="0 0 1452.2846 1670.224"
   sodipodi:docname="vector_crop.svg"
   inkscape:version="0.92.2 5c3e80d, 2017-08-06">
  <metadata
     id="metadata86">
    <rdf:RDF>
      <cc:Work
         rdf:about="">
        <dc:format>image/svg+xml</dc:format>
        <dc:type
           rdf:resource="http://purl.org/dc/dcmitype/StillImage" />
        <dc:title></dc:title>
      </cc:Work>
    </rdf:RDF>
  </metadata>
  <defs
     id="defs84" />
  <sodipodi:namedview
     pagecolor="#ffffff"
     bordercolor="#666666"
     borderopacity="1"
     objecttolerance="10"
     gridtolerance="10"
     guidetolerance="10"
     inkscape:pageopacity="0"
     inkscape:pageshadow="2"
     inkscape:window-width="640"
     inkscape:window-height="480"
     id="namedview82"
     showgrid="false"
     fit-margin-top="0"
     fit-margin-left="0"
     fit-margin-right="0"
     fit-margin-bottom="0"
     inkscape:zoom="0.1440637"
     inkscape:cx="734.28461"
     inkscape:cy="844.23453"
     inkscape:window-x="151"
     inkscape:window-y="73"
     inkscape:window-maximized="0"
     inkscape:current-layer="svg80" />
  <path
     style="fill:#ffffff;stroke-width:1.33333337"
     d="m 82.284574,1668.3653 c 0,-2.9473 -2.46431,-27.7385 -4.83628,-48.6533 -2.23925,-19.7447 -2.00144,-38.3634 0.6321,-49.488 0.7812,-3.3 2.39935,-11.1 3.59588,-17.3334 2.47994,-12.9193 13.2678,-46.391 22.560836,-70 8.21528,-20.8709 23.51796,-52.675 29.1063,-60.4926 2.4274,-3.3958 6.2377,-10.074 8.46732,-14.8407 6.43632,-13.76 19.1352,-29.2185 40.22917,-48.9715 10.7679,-10.0833 26.778,-25.5397 35.578,-34.3476 17.79331,-17.8092 20.8736,-19.7014 46.68222,-28.6784 15.69249,-5.4582 16.25234,-5.5498 30.65112,-5.0194 15.93554,0.587 16.06917,0.6322 38.65826,13.0658 l 10.65827,5.8666 -6.65827,1.75 c -50.9568,13.3925 -94.25894,36.0498 -135.32493,70.8072 -12.68556,10.7368 -54.60199,50.6698 -53.3172,50.7944 0.37553,0.036 13.27553,-8.5956 28.66666,-19.1824 51.86739,-35.677 85.61382,-55.0798 118.3857,-68.0668 14.59212,-5.7827 45.97264,-14.7546 47.22524,-13.5019 1.11355,1.1135 -2.66416,12.39 -6.74925,20.1465 -5.09355,9.6714 -20.89156,25.8016 -37.56619,38.3562 -14.58279,10.9796 -32.17308,19.8861 -58.64496,29.694 -53.32228,19.7558 -95.36959,50.5226 -121.62823,88.9977 -14.1374,20.7145 -13.69379,21.2015 3.76705,4.1353 35.80296,-34.9937 52.25964,-45.7636 90.46367,-59.2026 10.30196,-3.624 18.73084,-6.2798 18.73084,-5.9018 0,2.5635 -20.02217,31.8528 -37.60672,55.0127 -11.51702,15.1687 -23.19259,30.8793 -25.94569,34.9127 -2.75312,4.0333 -12.48262,16.6194 -21.62111,27.9693 -10.39352,12.9084 -15.15709,19.6979 -12.72096,18.1309 11.50328,-7.3989 27.93627,-21.6662 43.60485,-37.8581 33.06322,-34.1676 60.27719,-61.0837 70.28963,-69.5204 5.5,-4.6344 18.7,-16.3023 29.33334,-25.9287 25.27834,-22.8845 32.63717,-29.0658 48.66666,-40.8796 16.04759,-11.827 24.59635,-20.5437 36.19753,-36.9085 4.80684,-6.7807 9.19653,-12.0461 9.75486,-11.7011 2.56876,1.5876 4.38194,13.313 3.67091,23.739 -0.84999,12.4636 -4.57075,24.2672 -12.91061,40.9572 -5.1173,10.2408 -8.06688,13.7753 -30.59903,36.6666 -13.71471,13.9334 -27.10806,28.0822 -29.76298,31.4418 -2.65493,3.3594 -10.11994,10.5228 -16.5889,15.9182 -16.68826,13.919 -16.68956,13.9204 -10.42844,11.3528 26.07042,-10.6914 87.97089,-63.394 105.63271,-89.9364 15.58304,-23.4185 29.70062,-64.6069 29.70062,-86.6525 0,-3.7348 0.47276,-6.7905 1.05059,-6.7905 0.57781,0 8.82781,2.7477 18.33333,6.106 33.16658,11.7176 78.19146,24.3861 106.3517,29.9238 l 7.73561,1.5212 -11.73561,7.7608 c -18.45445,12.2042 -35.56576,27.3642 -55.27492,48.9715 -21.63807,23.7221 -27.22367,28.604 -49.10544,42.9185 -22.77851,14.9012 -40.32388,23.6103 -72.85536,36.164 -29.60002,11.4224 -31.80941,12.5338 -53.93047,27.1271 -7.92618,5.2288 -28.68784,18.2071 -46.13704,28.8404 -43.96106,26.7893 -76.72741,48.6389 -87.76573,58.5247 -12.19225,10.9193 -34.71134,25.7786 -54.52454,35.9784 -13.609736,7.0062 -16.870396,8.1636 -22.999996,8.1636 -5.2184,0 -7.14212,-0.5007 -7.14212,-1.8587 z M 613.66027,1440.7572 c 0.4888,-1.5402 0.93196,-14.2902 0.9848,-28.3334 0.10267,-27.3081 -1.81304,-43.7392 -5.5054,-47.2185 -2.01204,-1.896 -1.67348,-2.5999 4.20045,-8.7325 11.81635,-12.3368 28.0645,-39.76 33.32718,-56.2488 1.17028,-3.6667 3.06096,-13.8667 4.2015,-22.6667 3.69147,-28.4819 11.96417,-56.2307 24.68999,-82.8167 17.09354,-35.7106 36.74384,-58.1277 64.41354,-73.4828 21.6685,-12.0246 48.6198,-36.5968 61.3084,-55.8961 l 5.4541,-8.2956 5.0675,2.5853 c 19.2329,9.8119 46.821,8.5559 72.4808,-3.2996 19.3212,-8.9269 34.3358,-19.0749 71.961,-48.6365 13.1777,-10.35358 24.7396,-18.82468 25.6931,-18.82468 0.9535,0 3.9718,1.4052 6.7072,3.1227 16.50037,10.35968 36.64607,13.81108 55.78357,9.55688 11.3989,-2.53398 18.1379,-5.01178 50.1723,-18.44858 24.1096,-10.1128 38.3272,-14.6747 54.2717,-17.4138 l 11.2542,-1.9333 7.2536,5.1941 c 20.5819,14.7384 43.9826,15.4418 81.0218,2.435 16.8838,-5.929 19.7381,-5.9675 29.4277,-0.3975 3.0497,1.7531 9.5023,7.5235 14.3393,12.8232 12.2308,13.4011 18.014,17.06128 26.9562,17.06128 3.9082,0 9.5618,-0.98258 12.5635,-2.18368 7.1768,-2.8716 19.5127,-1.7575 30.6504,2.76828 4.5683,1.8562 16.4949,8.4628 26.5037,14.6812 26.5068,16.4686 37.8452,21.2233 55.293,23.1865 l 8.1492,0.9169 -14.6667,7.5227 c -19.7776,10.1441 -34.6303,15.0944 -79.3333,26.4415 -53.5823,13.6009 -72.3472,20.616 -94.7456,35.4196 -11.7931,7.7944 -29.8873,26.8729 -37.8543,39.9137 -13.8341,22.6443 -20.6434,26.6892 -51.5986,30.6513 -24.964,3.1954 -28.6415,4.5792 -42.2366,15.8944 -53.6117,44.6211 -97.1308,69.0275 -137.97847,77.381 -5.7274,1.1713 -20.1274,2.7404 -32,3.4868 -39.5548,2.4866 -55.6359,6.999 -99.4658,27.9102 -56.8448,27.1204 -91.8994,33.9204 -137.0403,26.5835 -20.6926,-3.3632 -27.7126,-2.4953 -44.33678,5.4815 -25.82028,12.3894 -45.24753,41.099 -61.99173,91.6113 -2.73478,8.25 -5.26315,15 -5.6186,15 -0.35546,0 -0.24635,-1.26 0.24245,-2.8001 z m 84.07006,-158.2216 c 22.724,-11.3422 54.7136,-24.9858 75.2209,-32.0819 8.4334,-2.9181 25.7764,-9.5637 38.54,-14.7677 45.2394,-18.4455 58.858,-21.7347 102.6845,-24.8016 15.7069,-1.0991 28.7721,-2.2126 29.034,-2.4744 0.2619,-0.2619 -2.9892,-0.7904 -7.2245,-1.1747 -4.2354,-0.3841 -17.0006,-3.4271 -28.3673,-6.7621 -17.459,-5.1226 -38.5702,-10.2492 -42.2054,-10.2492 -3.9521,0 24.2091,-23.7522 43.2229,-36.4556 43.6347,-29.1534 94.89957,-46.7779 167.64917,-57.6367 27.4315,-4.0944 36.6365,-4.0285 106.5651,0.7636 21.2109,1.4535 38.7921,2.4159 39.0694,2.1385 0.2773,-0.2772 -15.577,-5.7712 -35.2319,-12.2086 -19.6548,-6.4375 -36.336,-12.2379 -37.0693,-12.8899 -0.8446,-0.7508 1.5994,-4.0151 6.6667,-8.9044 9.4692,-9.1367 16.9702,-12.3555 39.3333,-16.8788 20.6068,-4.168 39.7986,-5.626 96.6667,-7.3436 57.3017,-1.7308 62.905,-2.3349 43.3333,-4.6723 -7.7,-0.9196 -23,-3.1969 -34,-5.0606 -26.0194,-4.4087 -48.8147,-7.5183 -55.1125,-7.5183 -2.7615,0 -5.7101,-0.6892 -6.5525,-1.5317 -3.24,-3.24 2.3967,-9.3802 22.8448,-24.88498 2.1156,-1.6041 3.4721,-2.9166 3.0145,-2.9166 -0.4577,0 -11.1886,4.5726 -23.8465,10.16158 -21.6229,9.5472 -55.166,23.6345 -95.0145,39.9038 -30.2524,12.3514 -60.5695,20.4018 -87.5235,23.2408 -14.1196,1.4872 -35.3453,1.7384 -42.7982,0.5066 l -4.9885,-0.8247 4.1423,-5.494 c 4.7871,-6.3495 21.9396,-32.3153 26.5292,-40.1608 2.555,-4.3675 0.6015,-2.9147 -10.7873,8.0225 -25.3051,24.3016 -61.10577,54.5726 -82.40047,69.6728 -4.8621,3.4479 -12.8268,9.5768 -17.6994,13.62 -13.1448,10.9075 -31.3809,21.7531 -72.0059,42.8244 -57.4376,29.7916 -79.0154,42.5518 -104.3368,61.6999 l -11.8687,8.9752 0.8903,-12.6664 c 2.231,-31.7375 13.2406,-53.2412 51.2747,-100.1484 7.7299,-9.5333 12.896,-16.4027 11.4801,-15.2652 -41.1473,33.056 -67.6734,64.9951 -81.1947,97.7631 -5.6,13.5712 -7.8365,21.3517 -11.93,41.5021 -1.7876,8.8 -3.8723,17.6291 -4.6326,19.62 -2.0012,5.2407 -29.18488,30.3896 -41.77424,38.6473 -9.31492,6.11 -6.379,7.0455 3.42288,1.0907 4.63417,-2.8155 16.77516,-9.2863 26.97996,-14.3797 z m -139.44575,86.307 c -17.76522,-1.3933 -25.1076,-2.8764 -66.66667,-13.4665 -43.1029,-10.9836 -58.6484,-15.5928 -76.39119,-22.6499 -36.59848,-14.5568 -54.46925,-27.2296 -72.59045,-51.4762 -6.19417,-8.288 -15.20485,-18.5095 -20.02374,-22.7143 -17.73507,-15.4749 -24.27441,-21.3957 -45.07761,-40.8137 -11.6877,-10.9094 -27.87123,-25.1396 -35.9634,-31.6228 -11.37994,-9.1174 -15.41182,-13.226 -17.7975,-18.1364 -4.974,-10.238 -18.98342,-30.4908 -33.4833,-48.4055 -7.41939,-9.1667 -19.16011,-23.6724 -26.0905,-32.2349 -16.04531,-19.824 -25.04705,-27.8166 -39.49125,-35.0636 -13.53964,-6.7934 -23.9975,-9.2919 -34.794036,-8.313 -6.89495,0.6252 -8.16395,0.3404 -11.36274,-2.55 l -3.60096,-3.2538 4.21226,-3.5396 c 5.35026,-4.4959 43.368256,-21.7862 72.690086,-33.0588 39.30403,-15.11028 62.32002,-21.15318 126.65414,-33.25358 25.17726,-4.7355 50.89264,-9.6174 57.14528,-10.8486 l 11.36841,-2.2384 34.63159,17.423 c 36.87941,18.5537 58.46836,30.87598 79.15865,45.18098 27.4178,18.9564 58.99795,46.9515 68.11025,60.3783 19.34513,28.5048 36.842,81.5387 45.54156,138.0387 3.93074,25.5286 4.86038,68.3553 1.8089,83.3333 -2.73884,13.4433 -4.22682,56.4507 -2.24892,65 1.13939,4.9248 1.02411,5.6413 -0.8806,5.4727 -1.20537,-0.1067 -7.8916,-0.641 -14.85826,-1.1874 z m -7.4109,-49.4397 c -3.32072,-6.612 -13.78581,-29.3425 -23.25577,-50.5123 -9.46996,-21.1697 -19.95693,-43.9438 -23.30439,-50.609 -6.06208,-12.0703 -6.08292,-12.1594 -5.24454,-22.4214 3.47492,-42.5341 -33.95574,-119.4456 -71.93109,-147.802 -10.9917,-8.2076 -13.20149,-7.3813 -4.81124,1.799 16.71647,18.2905 30.16162,42.1222 35.51748,62.9553 3.50234,13.6232 6.06068,48.0781 3.5699,48.0781 -0.69847,0 -5.66446,-5.429 -11.03552,-12.0645 -29.77263,-36.7819 -74.55803,-76.5608 -114.76061,-101.9321 -18.80749,-11.8691 -50.79932,-27.4444 -68.19126,-33.1992 -15.27954,-5.0559 -38.13084,-10.152 -45.35151,-10.114 -3.65633,0.019 -2.18121,0.9445 8.20944,5.1501 32.19019,13.0288 63.56065,31.7267 96,57.2193 27.05867,21.2642 65.56487,63.2579 83.05874,90.5812 l 3.61154,5.6408 -3.47157,0.8714 c -12.06484,3.0281 -38.95813,-4.1926 -97.18486,-26.0935 -48.11929,-18.0991 -71.10976,-26.0747 -72.1537,-25.0307 -1.2124,1.2124 14.41178,10.6178 29.2501,17.6078 8.18936,3.8577 31.38975,14.2246 51.55642,23.0373 69.55161,30.3937 88.56704,39.7247 111.30616,54.6184 23.93929,15.6797 37.51065,31.3495 46.66324,53.8783 4.86473,11.9744 10.87764,34.0936 9.61207,35.359 -1.31715,1.3172 -18.36284,-2.1762 -30.69367,-6.2905 -37.52897,-12.5217 -81.63055,-43.3748 -129.22114,-90.4019 -9.35,-9.2393 -17,-16.407 -17,-15.9285 0,2.7255 6.25695,14.6583 12.17454,23.2184 22.24129,32.1731 73.78728,71 130.73841,98.4783 23.57523,11.3748 40.69119,18.1562 53.83194,21.3285 8.96473,2.1641 45.58537,6.0832 47.56851,5.0905 0.53902,-0.2697 -1.7369,-5.9002 -5.05762,-12.5121 z m 61.60084,-52.0412 c -0.47113,-4.5076 -0.87093,-15.1576 -0.88842,-23.6667 -0.0175,-8.509 -0.68364,-17.871 -1.48034,-20.8044 -3.67396,-13.5272 -4.45998,-7.8724 16.9581,-122 11.9287,-63.5628 18.655,-122.27378 19.85812,-173.33328 0.4752,-20.1667 1.47862,-38.6345 2.22984,-41.0399 0.94336,-3.0204 0.92828,-5.6284 -0.0488,-8.431 -1.21584,-3.4878 -0.54291,-6.6703 4.7896,-22.6514 3.41231,-10.2264 6.59047,-17.9684 7.06259,-17.2045 1.58285,2.5611 3.9487,-18.9863 7.36994,-67.1226 l 3.3961,-47.7826 15.87878,-60.884 c 14.2946,-54.8099 17.8747,-66.5559 35.8846,-117.7364 l 20.0059,-56.8523 8.7303,-46.72208 c 6.8525,-36.6722 8.7304,-49.4413 8.7304,-59.3637 0,-13.1486 -2.3098,-28.0291 -5.9053,-38.0438 -1.1521,-3.2089 -2.0947,-6.1755 -2.0947,-6.5924 0,-1.6248 6.3549,7.9667 8.6488,13.0536 1.3326,2.9552 2.8909,5.3731 3.4629,5.3731 0.5721,0 2.2851,-1.7485 3.8068,-3.8856 2.6061,-3.6598 12.3284,-9.4478 15.8701,-9.4478 1.2041,0 1.1434,0.93 -0.2394,3.6667 -6.0552,11.9839 -10.0172,30.8761 -14.1908,67.6667 -5.9065,52.06658 -9.3111,70.08038 -16.5502,87.56748 -10.731,25.9222 -28.139,81.0667 -38.6497,122.4325 -3.2608,12.8333 -7.7991,29.9333 -10.085,38 -4.9135,17.3387 -13.9201,61.6607 -15.9858,78.6666 -0.8017,6.6 -2.3879,20.1 -3.525,30 -1.9419,16.9075 -6.56955,45.3078 -19.22742,118.0001 -6.71873,38.5846 -7.53366,50.0153 -5.18624,72.7444 3.27591,31.7193 1.6315,52.96288 -6.90361,89.18598 -1.45972,6.1952 -5.0537,27.1952 -7.98662,46.6666 -2.9329,19.4716 -6.20384,39.3682 -7.26874,44.2144 -3.62898,16.5152 -8.65672,49.7436 -8.65672,57.2123 0,4.4852 -1.86578,14.0533 -4.68899,24.0461 -2.57895,9.1283 -5.29165,21.9968 -6.02825,28.5968 -1.12986,10.1236 -4.58872,24.6667 -5.86664,24.6667 -0.20327,0 -0.75504,-3.688 -1.22618,-8.1956 z M 1.8568123,1153.8906 c 23.5619897,-26.1437 43.1338217,-52.6277 60.0990417,-81.3241 l 13.99708,-23.6759 h 13.59048 c 20.894526,0 34.156846,4.8454 48.072126,17.5632 7.48073,6.837 21.21673,23.667 20.17021,24.7134 -0.28542,0.2854 -6.73996,1.9388 -14.34341,3.6741 -25.32484,5.7799 -46.613286,14.6608 -74.468236,31.0661 -16.28299,9.5899 -44.441092,23.003 -57.701332,27.4858 -12.5601997,4.2462 -12.8063297,4.2593 -9.4159597,0.4974 z M 829.32403,524.86642 c -9.8171,-4.9057 -19.3276,-14.7656 -24.1316,-25.0184 -2.9408,-6.2761 -3.5726,-9.51 -3.5734,-18.2907 -10e-4,-9.1307 0.5562,-11.7667 3.8694,-18.3053 4.5631,-9.0055 15.1393,-19.79588 28.1295,-28.69918 l 9.3333,-6.397 -0.103,-15.2993 c -0.088,-13.0119 -0.6485,-16.894 -3.7508,-25.9659 -6.9229,-20.2442 -18.959,-34.6538 -35.4795,-42.4759 -7.178,-3.3986 -10.2699,-4.0937 -18,-4.0461 -5.7159,0.035 -11.3637,0.9348 -14.5717,2.3212 l -5.2384,2.2639 -16.0949,-16.0006 c -30.5965,-30.4169 -54.7059,-46.349 -81.9753,-54.1711 -9.9164,-2.8445 -14.05947,-3.337 -25.09371,-2.9826 l -13.21629,0.4245 1.37095,-3.6229 c 1.73056,-4.5732 -0.72192,-17.4917 -5.19735,-27.3771 -5.2138,-11.5163 0.0899,-7.723 9.01213,6.4457 6.44036,10.2274 10.56392,13.221 18.21116,13.221 16.75757,0 48.73491,14.1755 72.79341,32.2692 8.0667,6.0667 21.0861,17.444 28.932,25.283 l 14.2654,14.2526 8.6729,-26.476 c 8.5176,-26.0015 15.8677,-42.8227 22.6875,-51.9212 l 3.4422,-4.5924 v 4.863 c 0,2.6746 0.6747,6.3439 1.4994,8.1539 1.3499,2.9627 1.0124,3.7187 -3.3833,7.5781 -8.8728,7.7905 -20.7828,38.0919 -20.7828,52.8758 v 5.1751 l 12.2594,1.5474 c 26.7316,3.3742 41.8471,16.958 51.5481,46.3248 3.9573,11.9795 8.1925,33.364 8.1925,41.3658 0,3.716 0.6877,4.516 5.6667,6.5924 22.4767,9.3734 32.8359,16.8319 40.7161,29.31478 8.6822,13.7536 11.1412,32.6494 5.709,43.8709 -3.6253,7.4887 -20.0197,23.1405 -28.7101,27.4095 -3.6053,1.7711 -9.3109,3.4849 -12.6792,3.8086 l -6.1242,0.5884 -3.9558,-7.1418 -3.9558,-7.1419 v -24.1316 c 0,-17.4495 0.4878,-25.043 1.7617,-27.4231 0.9689,-1.8104 1.5543,-5.6512 1.3009,-8.5351 -0.4588,-5.2203 -0.4738,-5.2022 -3.3995,4.0898 -7.1112,22.5848 -7.5025,50.6456 -0.9436,67.6667 1.5609,4.0508 -9.49,3.068 -19.0134,-1.6909 z M 588.07258,431.73344 c -5.56618,-4.0321 -13.91984,-13.1467 -17.39771,-18.9825 l -2.06976,-3.4729 -7.94573,2.4729 c -10.19524,3.1732 -18.07083,3.1237 -31.04663,-0.195 -17.33719,-4.4341 -29.34596,-13.6484 -36.3351,-27.8799 -3.39489,-6.9128 -3.6534,-8.61 -3.57202,-23.4521 0.068,-12.4104 0.70262,-17.8467 2.82858,-24.2318 l 2.74087,-8.2318 -2.86435,-0.7189 c -5.08541,-1.2764 -13.9994,-10.1361 -19.37644,-19.2585 -14.4559,-24.5252 -7.60536,-56.2386 14.58362,-67.5122 7.27338,-3.6954 17.75897,-6.0468 26.96472,-6.0468 h 6.83345 l -2.83396,-3.0166 c -8.54258,-9.0931 -11.60297,-28.067 -6.2878,-38.9834 3.57815,-7.3488 12.61922,-15.7997 21.60808,-20.19758 9.48256,-4.63937 21.82876,-4.96749 31.04884,-0.82517 14.13004,6.34825 29.86454,23.68515 40.86136,45.02275 7.95258,15.4307 7.94542,15.3673 2.8927,25.6309 -4.22999,8.5923 -4.42072,9.6425 -4.42072,24.3411 0,13.8841 0.34445,16.0963 3.58178,23.0038 5.20824,11.1127 8.9201,14.3576 16.42383,14.3576 11.18169,0 18.81765,6.4523 23.22112,19.6218 6.81573,20.3839 7.12145,48.0981 0.7652,69.367 -2.21536,7.413 -9.67911,17.3399 -21.81253,29.0112 -15.07786,14.5035 -27.77247,17.8684 -38.3914,10.1761 z m -8.56827,-62.1761 c -1.39331,-12.0099 -1.49361,-22.0199 -0.21973,-21.9276 0.55,0.04 2.8,2.8764 5,6.3036 5.28805,8.2377 11.48254,12.2906 18.78516,12.2906 10.04121,0 9.34564,-2.4426 -5.21322,-18.3071 -4.78192,-5.2108 -9.34761,-10.6947 -10.146,-12.1865 -1.3729,-2.5653 -1.74921,-2.6074 -6.93974,-0.776 -7.18999,2.5367 -21.29095,2.4715 -27.51083,-0.1274 -5.83585,-2.4383 -10.5092,-6.5534 -13.10205,-11.5368 -2.5226,-4.8483 -2.36574,-16.5686 0.33364,-24.9267 2.07914,-6.4378 2.06692,-7.296 -0.21111,-14.8198 -2.58247,-8.5294 -3.29208,-9.1663 -6.56528,-5.8931 -2.96987,2.9698 -3.80437,7.4167 -2.18912,11.6651 1.2736,3.3498 0.891,4.1317 -4.59272,9.386 -3.29013,3.1526 -5.98207,6.9012 -5.98207,8.3304 0,3.6128 3.652,8.4589 7.46788,9.9097 2.65303,1.0087 3.19879,2.1421 3.19879,6.6431 0,7.4597 4.88387,12.4723 11.40969,11.7105 4.40342,-0.5141 4.59031,-0.3587 4.59031,3.8161 0,5.1549 3.69932,7.7726 9.37892,6.6367 3.60949,-0.7219 3.74655,-0.538 4.62165,6.1993 1.2464,9.5958 6.37779,20.3755 12.26706,25.7698 6.16685,5.6486 7.06878,4.3388 5.61877,-8.16 z m 44.1136,-33.1439 c 0,-0.2624 -3.75,-2.7721 -8.33333,-5.5771 -22.54174,-13.7954 -41.82635,-31.881 -48.51111,-45.4949 -3.17573,-6.4675 -3.82223,-9.4756 -3.82223,-17.7841 0,-8.4356 0.555,-10.9387 3.54772,-16 1.95124,-3.3 5.37991,-7.7419 7.61926,-9.8707 5.23809,-4.9798 4.0793,-6.8267 -2.23954,-3.5696 -6.42538,3.312 -12.93705,10.189 -15.52653,16.3974 -8.09259,19.4027 7.66855,53.854 31.71325,69.3202 8.17012,5.2552 35.55251,14.9434 35.55251,12.5788 z m 232.66672,-32.0617 c -36.2973,-11.5279 -53.6955,-48.4368 -42.1489,-89.4156 2.6586,-9.4352 2.6072,-11.3788 -0.3008,-11.3788 -0.8941,0 -6.0136,-2.1029 -11.3768,-4.6732 -13.6405,-6.537 -25.1416,-17.8315 -30.9171,-30.36167 -10.4926,-22.76395 -5.2464,-51.87209 12.5376,-69.564344 10.8778,-10.82164 17.4075,-13.37776 34.206,-13.39034 12.7364,-0.009 14.7821,0.34936 22.6666,3.97661 4.7667,2.19292 12.4895,6.874 17.1619,10.40243 8.3075,6.273534 8.4738,6.332744 7.5272,2.679544 -11.6332,-44.892104 -0.1588,-81.203624 30.2679,-95.7852245 12.6377,-6.05647 25.4744,-8.09692 38.3764,-6.10012 20.3953,3.15653 35.2427,13.5165005 43.5971,30.4204505 4.5193,9.14429 5.0391,11.31764 5.5099,23.04089 0.485,12.07532 -1.7721,26.23052 -5.7964,36.35091 -0.7583,1.90719 0.6663,1.58411 7.8611,-1.78279 4.8331,-2.26165 12.6966,-4.7817 17.47447,-5.60013 24.8681,-4.25972 49.8311,9.75253 61.7158,34.642304 4.8478,10.1526 4.9713,10.79232 4.9713,25.74464 0,14.49312 -0.2344,15.82824 -4.2782,24.3651 -5.0654,10.69384 -15.2858,21.48484 -26.1627,27.62334 -4.1574,2.3463 -7.8271,4.6998 -8.1547,5.2299 -0.3276,0.5301 0.9098,4.2131 2.7497,8.1845 6.7251,14.5153 9.0848,23.9708 9.1332,36.5972 0.055,14.2838 -2.3948,22.3988 -9.6257,31.8885 -9.0946,11.9356 -23.4415,19.4726 -42.44717,22.2993 -22.8659,3.4009 -47.955,-5.52 -57.3412,-20.3887 l -3.3594,-5.3216 -3.7134,5.0946 c -8.5157,11.6829 -21.7266,21.191 -34.7091,24.9806 -8.6668,2.5298 -27.8088,2.6604 -35.4246,0.2417 z m 54.6292,-69.5467 c 1.7427,-1.8804 5.164,-7.2782 7.603,-11.9951 2.4389,-4.7168 4.7594,-8.5783 5.1567,-8.581 0.3972,0 2.3092,3.2309 4.2489,7.1859 4.8052,9.7976 11.3348,17.0507 14.8924,16.5427 2.4932,-0.356 2.8472,-1.4185 3.2021,-9.6091 0.2195,-5.065 -0.243,-12.2025 -1.0277,-15.8613 -0.7846,-3.6588 -1.2051,-6.8738 -0.9344,-7.1445 0.2707,-0.2707 5.2331,3.1757 11.0276,7.6587 9.5728,7.4061 16.5372,11.8893 18.4693,11.8893 2.3248,0 -0.091,-8.0856 -5.8375,-19.5405 -3.6138,-7.2031 -6.4051,-13.2618 -6.2031,-13.4639 0.2021,-0.202 3.7828,1.1963 7.9571,3.1074 12.7804,5.851 14.9626,2.2728 5.6137,-9.2051 l -5.8693,-7.2059 9.0908,-0.8449 c 4.9999,-0.4647 10.0564,-1.2155 11.2366,-1.6684 3.6642,-1.4061 -0.1248,-4.21696 -8.086,-5.9986 -4.0101,-0.89743 -7.5294,-2.01715 -7.8205,-2.48826 -0.2912,-0.4711 3.0756,-1.60116 7.4818,-2.51124 5.0907,-1.05148 7.8175,-2.23662 7.4797,-3.25098 -0.2923,-0.87796 -1.3817,-1.70938 -2.4209,-1.84758 -1.0393,-0.13821 -5.2557,-0.6209 -9.3698,-1.07265 l -7.4802,-0.82136 7.1469,-7.32032 c 11.4995,-11.77852 9.0797,-15.71417 -5.6552,-9.19772 l -7.5448,3.33668 3.5222,-4.33668 c 8.4948,-10.459 13.3348,-21.38215 10.6596,-24.05732 -1.5649,-1.56492 -10.4977,4.10941 -19.5715,12.43232 -8.0704,7.40259 -9.4079,8.16532 -12.1374,6.92167 -2.5796,-1.17534 -3.1872,-2.71692 -3.8196,-9.69067 -0.4428,-4.88393 -1.6136,-9.15461 -2.848,-10.38901 -1.9058,-1.9058 -2.4301,-1.8507 -5.7772,0.60732 -2.0247,1.48682 -5.7154,6.10886 -8.2016,10.27117 -3.7775,6.32416 -5.134,7.56785 -8.2546,7.56785 -4.5869,0 -5.4974,-1.38489 -6.6905,-10.17657 -1.0778,-7.94291 -3.5464,-13.63059 -6.7898,-15.64439 -4.9686,-3.08491 -10.4114,7.61019 -10.4114,20.4583 0,5.08794 -0.1846,5.35766 -2.7337,3.99342 -1.5036,-0.80468 -5.1292,-2.3082 -8.0569,-3.34114 -7.3098,-2.57908 -8.078,-0.0797 -2.6745,8.7021 2.2725,3.69326 4.1318,6.92744 4.1318,7.18707 0,0.25964 -5.2233,-2.14937 -11.6073,-5.35336 -6.6764,-3.35075 -13.4733,-5.82543 -16,-5.82543 -3.8241,0 -4.3927,0.44184 -4.3927,3.41315 0,5.23087 11.9834,17.06039 22.7271,22.43523 l 8.9906,4.49784 -8.8588,4.50448 c -13.8779,7.05648 -12.3769,12.15628 4.4744,15.20218 2.9334,0.5302 5.7901,1.2248 6.3484,1.5436 0.5583,0.3187 -1.9208,3.9899 -5.5089,8.1582 -11.8219,13.733 -13.9597,21.8781 -5.9462,22.6552 4.709,0.4566 14.9018,-4.1658 21.5833,-9.7879 l 4.1901,-3.5257 v 8.6032 c 0,14.6332 3.0581,26.3005 6.8936,26.3005 0.6785,0 2.6596,-1.5385 4.4023,-3.4189 z m 4.7439,-31.3979 c -9.0301,-3.6039 -18.6358,-15.0175 -21.4574,-25.496 -1.9534,-7.2546 0.4465,-14.71607 6.7659,-21.03552 13.3329,-13.33291 30.0858,-15.09823 42.4935,-4.4777 5.8554,5.01196 12.1748,16.8619 12.1289,22.74352 -0.071,9.0632 -10.1809,22.4025 -20.6374,27.2289 -5.7935,2.6741 -14.0757,3.1192 -19.2935,1.0368 z"
     id="path90"
     inkscape:connector-curvature="0" />
</svg>
